<?xml version="1.0" encoding="utf-8"?>
<!-- Generator: Adobe Illustrator 16.0.0, SVG Export Plug-In . SVG Version: 6.00 Build 0)  -->
<!DOCTYPE svg PUBLIC "-//W3C//DTD SVG 1.1//EN" "http://www.w3.org/Graphics/SVG/1.1/DTD/svg11.dtd">
<svg version="1.1" id="Layer_1" xmlns="http://www.w3.org/2000/svg" xmlns:xlink="http://www.w3.org/1999/xlink" x="0px" y="0px"
	 width="302.667px" height="130.48px" viewBox="0 0 302.667 130.48" enable-background="new 0 0 302.667 130.48"
	 xml:space="preserve">
<text transform="matrix(1 0 0 1 35.4165 87.7646)"><tspan x="0" y="0" font-family="'CourierNewPS-BoldMT'" font-size="71.1919">&lt;  </tspan><tspan x="128.166" y="0" font-family="'CourierNewPS-BoldMT'" font-size="71.1919" letter-spacing="-21"> </tspan><tspan x="148.89" y="0" font-family="'CourierNewPS-BoldMT'" font-size="71.1919" letter-spacing="-1">/</tspan><tspan x="190.046" y="0" font-family="'CourierNewPS-BoldMT'" font-size="71.1919">&gt;</tspan></text>
<path d="M85.779,38.043v55.492h93.811V38.043H85.779z M173.93,87.849H91.08V81.03h82.851V87.849z M174.29,75.413H91.437v-6.815
	h82.853V75.413z M174.29,62.979h-41.606v-6.812h41.606V62.979z M174.29,50.548h-41.606v-6.818h41.606V50.548z"/>
<text transform="matrix(1 0 0 1 45.0991 112.3359)" display="none"><tspan x="0" y="0" display="inline" font-family="'Gotham-Bold'" font-size="24">C</tspan><tspan x="12.959" y="0" display="inline" font-family="'Gotham-Bold'" font-size="24">o</tspan><tspan x="25.656" y="0" display="inline" font-family="'Gotham-Bold'" font-size="24" letter-spacing="-1">d</tspan><tspan x="38.087" y="0" display="inline" font-family="'Gotham-Bold'" font-size="24">e </tspan><tspan x="57.119" y="0" display="inline" font-family="'Gotham-Bold'" font-size="24">f</tspan><tspan x="63.647" y="0" display="inline" font-family="'Gotham-Bold'" font-size="24">o</tspan><tspan x="75.863" y="0" display="inline" font-family="'Gotham-Bold'" font-size="24">r </tspan><tspan x="90.718" y="0" display="inline" font-family="'Gotham-Bold'" font-size="24">Am</tspan><tspan x="123.502" y="0" display="inline" font-family="'Gotham-Bold'" font-size="24">e</tspan><tspan x="134.854" y="0" display="inline" font-family="'Gotham-Bold'" font-size="24">r</tspan><tspan x="142.15" y="0" display="inline" font-family="'Gotham-Bold'" font-size="24">i</tspan><tspan x="146.974" y="0" display="inline" font-family="'Gotham-Bold'" font-size="24">c</tspan><tspan x="157.558" y="0" display="inline" font-family="'Gotham-Bold'" font-size="24">a</tspan></text>
<text transform="matrix(1 0 0 1 30.5127 115.0029)" display="none"><tspan x="0" y="0" display="inline" font-family="'Crank8-PlusTwo'" font-size="31">Cod</tspan><tspan x="50.623" y="0" display="inline" font-family="'Crank8-PlusTwo'" font-size="31">e </tspan><tspan x="72.725" y="0" display="inline" font-family="'Crank8-PlusTwo'" font-size="31" letter-spacing="-1">fo</tspan><tspan x="96.316" y="0" display="inline" font-family="'Crank8-PlusTwo'" font-size="31">r </tspan><tspan x="113.024" y="0" display="inline" font-family="'Crank8-PlusTwo'" font-size="31">A</tspan><tspan x="132.616" y="0" display="inline" font-family="'Crank8-PlusTwo'" font-size="31">me</tspan><tspan x="172.761" y="0" display="inline" font-family="'Crank8-PlusTwo'" font-size="31">r</tspan><tspan x="182.898" y="0" display="inline" font-family="'Crank8-PlusTwo'" font-size="31">i</tspan><tspan x="189.532" y="0" display="inline" font-family="'Crank8-PlusTwo'" font-size="31">ca</tspan></text>
</svg>
