<?xml version="1.0" standalone="no"?>
<!DOCTYPE svg PUBLIC "-//W3C//DTD SVG 20010904//EN"
 "http://www.w3.org/TR/2001/REC-SVG-20010904/DTD/svg10.dtd">
<svg version="1.0" xmlns="http://www.w3.org/2000/svg"
 width="287.000000pt" height="287.000000pt" viewBox="0 0 287.000000 287.000000"
 preserveAspectRatio="xMidYMid meet">
<metadata>
Created by potrace 1.14, written by Peter Selinger 2001-2017
</metadata>
<g transform="translate(0.000000,287.000000) scale(0.100000,-0.100000)"
fill="#000000" stroke="none">
<path d="M932 2844 c-68 -34 -98 -73 -218 -281 -54 -95 -104 -173 -110 -173
-22 0 -83 79 -94 121 -17 61 -5 120 35 172 l34 44 -20 32 c-16 27 -22 30 -39
21 -22 -12 -60 -61 -85 -109 -56 -110 -8 -274 100 -341 l34 -21 -28 -47 c-40
-66 -54 -116 -49 -177 5 -63 34 -108 88 -135 30 -15 54 -19 118 -16 69 3 92 9
154 39 40 20 83 43 94 52 21 15 22 15 28 -20 8 -43 53 -75 106 -75 38 0 103
27 151 60 l29 21 12 -26 c15 -32 56 -55 100 -55 43 0 124 38 173 81 30 26 39
31 43 19 3 -8 22 -32 43 -52 64 -61 160 -64 278 -8 58 28 61 28 46 8 -8 -13
-15 -25 -15 -29 0 -3 28 -5 62 -5 l62 1 65 112 c36 61 68 114 71 117 3 2 6
-33 6 -78 2 -132 36 -173 136 -163 64 6 142 54 231 144 39 40 73 76 75 81 1 5
-7 17 -18 27 -20 18 -21 17 -100 -61 -114 -113 -171 -139 -204 -92 -9 12 -16
42 -16 65 0 37 3 43 21 43 89 0 189 83 253 212 32 63 38 83 33 114 -15 90
-100 108 -220 46 -4 -2 19 41 51 95 32 54 70 119 85 146 l28 47 -64 0 -63 0
-183 -315 c-158 -272 -191 -323 -240 -366 -114 -102 -234 -137 -286 -84 -29
28 -30 40 -11 86 12 29 113 207 156 275 22 35 77 67 104 60 38 -9 39 -30 1
-118 -6 -16 -1 -18 43 -18 49 0 51 1 71 43 52 108 -1 191 -118 188 -53 -2
-125 -32 -164 -69 -16 -15 -73 -101 -127 -192 -97 -164 -151 -229 -223 -266
-35 -19 -71 -15 -75 8 -2 12 96 192 275 501 2 4 -24 7 -59 7 l-63 0 -117 -203
c-64 -111 -132 -216 -150 -233 -60 -56 -120 -94 -150 -94 -39 0 -37 26 8 103
20 34 47 80 59 102 13 22 71 123 130 225 190 327 205 353 205 356 0 2 -28 4
-62 4 l-63 -1 -169 -292 c-161 -277 -173 -296 -246 -362 -115 -106 -228 -153
-315 -131 -36 9 -64 59 -59 105 4 34 50 137 65 147 4 2 46 6 93 7 77 3 94 8
161 42 276 140 348 518 105 550 -36 5 -55 1 -98 -21z m128 -104 c43 -43 12
-162 -67 -258 -40 -48 -121 -105 -168 -116 -45 -12 -107 -17 -102 -8 3 4 39
68 82 142 42 74 90 156 107 181 51 76 108 99 148 59z m1412 -291 c25 -14 20
-38 -26 -116 -42 -71 -72 -100 -116 -113 -26 -7 -39 -6 -57 5 -31 21 -29 34
11 94 40 59 87 104 130 125 37 19 33 18 58 5z"/>
<path d="M1630 2730 c-11 -11 -20 -23 -21 -27 0 -5 -2 -16 -4 -26 -5 -24 34
-65 67 -71 35 -6 78 33 78 69 0 33 -42 75 -75 75 -14 0 -34 -9 -45 -20z"/>
<path d="M510 1670 l0 -30 975 0 975 0 0 30 0 30 -975 0 -975 0 0 -30z"/>
<path d="M580 1488 l0 -48 35 0 c27 0 33 3 28 16 -4 12 -1 15 13 12 17 -3 19
-13 20 -83 0 -91 -2 -105 -22 -105 -10 0 -14 -10 -12 -30 2 -30 2 -30 65 -30
l63 0 0 30 c0 20 -5 30 -15 30 -16 0 -17 4 -17 115 -1 57 2 71 15 73 10 2 17
-3 17 -12 0 -11 9 -16 30 -16 30 0 32 3 32 40 0 59 8 56 -127 55 l-125 0 0
-47z"/>
<path d="M1091 1532 c-6 -2 -11 -17 -11 -33 0 -21 5 -29 18 -29 15 0 17 -10
14 -95 -3 -74 -6 -95 -18 -95 -9 0 -14 -11 -14 -30 l0 -30 60 0 c33 0 60 3 61
8 0 4 2 17 5 30 2 14 -1 22 -10 22 -16 0 -26 20 -22 46 2 13 12 19 37 19 19 1
39 0 45 -2 17 -6 10 -57 -8 -61 -10 -2 -15 -13 -14 -33 1 -29 1 -29 63 -29
l63 0 0 30 c0 20 -5 30 -15 30 -12 0 -15 18 -15 100 0 86 2 99 16 93 12 -5 15
1 12 28 l-3 34 -59 0 c-59 0 -60 -1 -62 -29 -1 -19 4 -30 15 -33 11 -3 17 -14
16 -31 0 -25 -3 -27 -44 -27 -40 0 -45 2 -48 26 -2 19 2 28 15 31 14 4 19 14
18 34 -2 27 -4 28 -53 29 -28 0 -55 -1 -62 -3z"/>
<path d="M1709 1513 c-5 -14 -9 -27 -9 -30 0 -3 -14 -50 -31 -105 -20 -63 -36
-98 -45 -98 -9 0 -14 -11 -14 -30 l0 -30 60 0 c33 0 60 3 61 8 0 4 2 15 4 25
2 10 -3 21 -11 24 -14 5 -20 32 -6 34 39 6 88 3 94 -6 12 -16 9 -25 -6 -25
-10 0 -14 -10 -14 -30 l1 -30 63 0 c60 0 63 1 61 23 -1 13 -10 31 -19 40 -16
16 -25 42 -64 185 -10 34 -22 62 -28 63 -75 7 -88 5 -97 -18z m75 -105 c6 -25
4 -28 -19 -28 -29 0 -29 0 -13 52 12 42 16 39 32 -24z"/>
<path d="M2134 1531 c-2 -2 -4 -24 -4 -48 0 -41 1 -43 30 -43 20 0 30 5 30 15
0 8 8 15 18 15 16 0 18 -10 17 -92 0 -70 -4 -93 -15 -97 -8 -3 -16 -18 -18
-33 l-3 -28 65 0 66 0 0 30 c0 20 -5 30 -15 30 -8 0 -15 3 -16 8 0 14 -1 147
0 165 1 21 31 23 31 2 0 -17 59 -22 61 -5 1 13 1 68 0 78 -1 7 -239 11 -247 3z"/>
<path d="M510 1090 l0 -30 975 0 975 0 0 30 0 30 -975 0 -975 0 0 -30z"/>
<path d="M275 858 c-39 -31 -30 -80 19 -106 18 -9 17 -11 -12 -26 -17 -9 -37
-16 -44 -16 -8 0 -15 -11 -16 -25 -2 -28 18 -33 60 -16 93 38 137 173 65 197
-39 13 -46 13 -72 -8z"/>
<path d="M546 657 c-71 -122 -176 -303 -234 -402 -57 -99 -110 -192 -118 -206
l-13 -27 59 0 c33 0 64 5 69 12 14 18 171 288 171 295 0 4 30 40 67 81 101
110 183 155 183 99 0 -11 -43 -93 -96 -184 -106 -181 -118 -220 -85 -271 39
-63 145 -55 240 17 51 39 52 39 60 17 5 -13 23 -36 40 -53 29 -27 39 -30 94
-29 70 0 124 23 186 79 27 25 48 35 72 35 19 1 50 7 70 14 l37 13 6 -37 c20
-127 195 -141 324 -26 28 25 49 34 87 39 28 3 58 9 68 12 13 6 17 2 17 -18 0
-115 128 -142 246 -52 l31 24 14 -25 c51 -95 191 -60 340 86 43 42 79 83 79
91 0 8 -9 20 -20 26 -17 12 -27 5 -97 -66 -43 -43 -93 -86 -111 -95 -39 -20
-76 -18 -80 6 -2 9 53 112 121 230 68 117 165 284 216 370 50 86 91 159 91
162 0 4 -27 6 -59 6 -56 0 -60 -2 -79 -32 -11 -18 -52 -88 -91 -156 l-72 -123
-30 26 c-38 31 -68 39 -116 30 -91 -17 -144 -70 -248 -248 -71 -120 -85 -139
-125 -161 -25 -13 -60 -27 -78 -31 l-34 -7 17 32 c9 18 37 67 62 109 57 96 72
137 66 186 -10 92 -69 139 -164 132 -111 -9 -155 -51 -280 -267 l-90 -158 -55
-17 c-30 -9 -57 -15 -59 -13 -2 2 24 51 57 108 87 149 100 209 62 281 -22 43
-61 64 -124 66 -119 4 -172 -44 -305 -276 -104 -180 -117 -197 -186 -242 -51
-32 -92 -35 -97 -8 -2 9 45 100 104 203 122 213 132 248 80 292 -44 38 -116
27 -191 -31 -28 -21 -22 -7 52 123 46 81 88 151 93 156 20 20 8 26 -52 26
l-63 0 -129 -223z m719 -110 c29 -22 14 -82 -46 -183 -39 -65 -60 -90 -77 -92
-31 -5 -54 -44 -51 -84 4 -41 -17 -73 -56 -88 -67 -26 -101 17 -69 87 31 65
161 285 189 321 39 49 77 62 110 39z m510 0 c29 -22 14 -80 -44 -180 -40 -68
-59 -90 -86 -101 -37 -16 -52 -48 -41 -91 4 -17 0 -30 -16 -46 -24 -22 -60
-39 -83 -39 -26 0 -47 32 -41 61 6 33 167 316 204 361 38 45 75 57 107 35z
m516 -27 c29 -16 24 -55 -18 -129 -47 -86 -114 -189 -144 -222 -62 -69 -159
-105 -159 -58 0 25 191 357 222 386 20 18 41 27 71 32 5 0 17 -4 28 -9z"/>
</g>
</svg>
